<svg version="1.1" xmlns="http://www.w3.org/2000/svg" viewBox="0 0 908 392" width="908" height="392">
  <!-- svg-source:excalidraw -->
  
  <defs>
    <style class="style-fonts">
      @font-face {
        font-family: "Virgil";
        src: url("https://excalidraw.com/Virgil.woff2");
      }
      @font-face {
        font-family: "Cascadia";
        src: url("https://excalidraw.com/Cascadia.woff2");
      }
    </style>
  </defs>
  <rect x="0" y="0" width="908" height="392" fill="#ffffff"></rect><g mask="url(#mask-4lDHrEZEEwQr352NTaEU7)" stroke-linecap="round"><g transform="translate(10 369.5) rotate(0 444 0)"><path d="M0 0 C148 0, 740 0, 888 0 M0 0 C148 0, 740 0, 888 0" stroke="#000000" stroke-width="4" fill="none"></path></g><g transform="translate(10 369.5) rotate(0 444 0)"><path d="M859.81 10.26 C865.62 8.15, 871.43 6.03, 888 0 M859.81 10.26 C869.41 6.77, 879.01 3.27, 888 0" stroke="#000000" stroke-width="4" fill="none"></path></g><g transform="translate(10 369.5) rotate(0 444 0)"><path d="M859.81 -10.26 C865.62 -8.15, 871.43 -6.03, 888 0 M859.81 -10.26 C869.41 -6.77, 879.01 -3.27, 888 0" stroke="#000000" stroke-width="4" fill="none"></path></g></g><mask id="mask-4lDHrEZEEwQr352NTaEU7"><rect x="0" y="0" fill="#fff" width="998" height="469.5"></rect><rect x="430" y="357" fill="#000" width="48" height="25" opacity="1"></rect></mask><g transform="translate(430 357) rotate(0 24 12.5)"><text x="24" y="20" font-family="Cascadia, Segoe UI Emoji" font-size="20px" fill="#000000" text-anchor="middle" style="white-space: pre;" direction="ltr">time</text></g><g mask="url(#mask-xdsOCfG4tzrrKS959CUah)" stroke-linecap="round"><g transform="translate(19 306.5) rotate(0 420.5 0)"><path d="M0 0 C140.17 0, 700.83 0, 841 0 M0 0 C140.17 0, 700.83 0, 841 0" stroke="#862e9c" stroke-width="2" fill="none"></path></g><g transform="translate(19 306.5) rotate(0 420.5 0)"><path d="M812.81 10.26 C820.21 7.57, 827.6 4.88, 841 0 M812.81 10.26 C822.97 6.56, 833.12 2.87, 841 0" stroke="#862e9c" stroke-width="2" fill="none"></path></g><g transform="translate(19 306.5) rotate(0 420.5 0)"><path d="M812.81 -10.26 C820.21 -7.57, 827.6 -4.88, 841 0 M812.81 -10.26 C822.97 -6.56, 833.12 -2.87, 841 0" stroke="#862e9c" stroke-width="2" fill="none"></path></g></g><mask id="mask-xdsOCfG4tzrrKS959CUah"><rect x="0" y="0" fill="#fff" width="960" height="406.5"></rect><rect x="398" y="294" fill="#000" width="83" height="25" opacity="1"></rect></mask><g mask="url(#mask-aTS_Jr0QkH4m6J4WayczE)" stroke-linecap="round"><g transform="translate(77 171.5) rotate(0 225 0)"><path d="M0 0 C75 0, 375 0, 450 0 M0 0 C75 0, 375 0, 450 0" stroke="#2b8a3e" stroke-width="2" fill="none"></path></g><g transform="translate(77 171.5) rotate(0 225 0)"><path d="M421.81 10.26 C429.84 7.34, 437.88 4.41, 450 0 M421.81 10.26 C430.2 7.21, 438.59 4.15, 450 0" stroke="#2b8a3e" stroke-width="2" fill="none"></path></g><g transform="translate(77 171.5) rotate(0 225 0)"><path d="M421.81 -10.26 C429.84 -7.34, 437.88 -4.41, 450 0 M421.81 -10.26 C430.2 -7.21, 438.59 -4.15, 450 0" stroke="#2b8a3e" stroke-width="2" fill="none"></path></g></g><mask id="mask-aTS_Jr0QkH4m6J4WayczE"><rect x="0" y="0" fill="#fff" width="627" height="271.5"></rect><rect x="237" y="159" fill="#000" width="130" height="25" opacity="1"></rect></mask><g transform="translate(398 294) rotate(0 41.5 12.5)"><text x="41.5" y="20" font-family="Cascadia, Segoe UI Emoji" font-size="20px" fill="#862e9c" text-anchor="middle" style="white-space: pre;" direction="ltr">Base OS</text></g><g transform="translate(237 159) rotate(0 65 12.5)"><text x="65" y="20" font-family="Cascadia, Segoe UI Emoji" font-size="20px" fill="#2b8a3e" text-anchor="middle" style="white-space: pre;" direction="ltr">Python:3.11</text></g><g mask="url(#mask-hrFy5huVE0K6lt0nM8BoL)" stroke-linecap="round"><g transform="translate(260 94.5) rotate(0 225 0)"><path d="M0 0 C75 0, 375 0, 450 0 M0 0 C75 0, 375 0, 450 0" stroke="#087f5b" stroke-width="2" fill="none"></path></g><g transform="translate(260 94.5) rotate(0 225 0)"><path d="M421.81 10.26 C429.32 7.53, 436.82 4.8, 450 0 M421.81 10.26 C431.83 6.61, 441.85 2.97, 450 0" stroke="#087f5b" stroke-width="2" fill="none"></path></g><g transform="translate(260 94.5) rotate(0 225 0)"><path d="M421.81 -10.26 C429.32 -7.53, 436.82 -4.8, 450 0 M421.81 -10.26 C431.83 -6.61, 441.85 -2.97, 450 0" stroke="#087f5b" stroke-width="2" fill="none"></path></g></g><mask id="mask-hrFy5huVE0K6lt0nM8BoL"><rect x="0" y="0" fill="#fff" width="810" height="194.5"></rect><rect x="420" y="82" fill="#000" width="130" height="25" opacity="1"></rect></mask><g transform="translate(420 82) rotate(0 65 12.5)"><text x="65" y="20" font-family="Cascadia, Segoe UI Emoji" font-size="20px" fill="#087f5b" text-anchor="middle" style="white-space: pre;" direction="ltr">Python:3.12</text></g><g mask="url(#mask-09CtDQRt2F_M23kBAArZD)" stroke-linecap="round"><g transform="translate(396 22.5) rotate(0 225 0)"><path d="M0 0 C75 0, 375 0, 450 0 M0 0 C75 0, 375 0, 450 0" stroke="#0b7285" stroke-width="2" fill="none"></path></g><g transform="translate(396 22.5) rotate(0 225 0)"><path d="M421.81 10.26 C429.8 7.35, 437.8 4.44, 450 0 M421.81 10.26 C429.37 7.51, 436.94 4.75, 450 0" stroke="#0b7285" stroke-width="2" fill="none"></path></g><g transform="translate(396 22.5) rotate(0 225 0)"><path d="M421.81 -10.26 C429.8 -7.35, 437.8 -4.44, 450 0 M421.81 -10.26 C429.37 -7.51, 436.94 -4.75, 450 0" stroke="#0b7285" stroke-width="2" fill="none"></path></g></g><mask id="mask-09CtDQRt2F_M23kBAArZD"><rect x="0" y="0" fill="#fff" width="946" height="122.5"></rect><rect x="556" y="10" fill="#000" width="130" height="25" opacity="1"></rect></mask><g transform="translate(556 10) rotate(0 65 12.5)"><text x="65" y="20" font-family="Cascadia, Segoe UI Emoji" font-size="20px" fill="#0b7285" text-anchor="middle" style="white-space: pre;" direction="ltr">Python:3.13</text></g><g mask="url(#mask-GFLcaeYWBD-94vNsG_Xgv)" stroke-linecap="round"><g transform="translate(19 243.5) rotate(0 417.5 0)"><path d="M0 0 C139.17 0, 695.83 0, 835 0 M0 0 C139.17 0, 695.83 0, 835 0" stroke="#364fc7" stroke-width="2" fill="none"></path></g><g transform="translate(19 243.5) rotate(0 417.5 0)"><path d="M806.81 10.26 C814.83 7.34, 822.85 4.42, 835 0 M806.81 10.26 C813.4 7.86, 820 5.46, 835 0" stroke="#364fc7" stroke-width="2" fill="none"></path></g><g transform="translate(19 243.5) rotate(0 417.5 0)"><path d="M806.81 -10.26 C814.83 -7.34, 822.85 -4.42, 835 0 M806.81 -10.26 C813.4 -7.86, 820 -5.46, 835 0" stroke="#364fc7" stroke-width="2" fill="none"></path></g></g><mask id="mask-GFLcaeYWBD-94vNsG_Xgv"><rect x="0" y="0" fill="#fff" width="954" height="343.5"></rect><rect x="377.5" y="231" fill="#000" width="118" height="25" opacity="1"></rect></mask><g transform="translate(377.5 231) rotate(0 59 12.5)"><text x="59" y="20" font-family="Cascadia, Segoe UI Emoji" font-size="20px" fill="#364fc7" text-anchor="middle" style="white-space: pre;" direction="ltr">Python:3.6</text></g></svg>