<svg version="1.1" xmlns="http://www.w3.org/2000/svg" viewBox="0 0 574 277" width="574" height="277">
  <!-- svg-source:excalidraw -->
  
  <defs>
    <style class="style-fonts">
      @font-face {
        font-family: "Virgil";
        src: url("https://excalidraw.com/Virgil.woff2");
      }
      @font-face {
        font-family: "Cascadia";
        src: url("https://excalidraw.com/Cascadia.woff2");
      }
    </style>
  </defs>
  <rect x="0" y="0" width="574" height="277" fill="#ffffff"></rect><g stroke-linecap="round" transform="translate(11 201) rotate(0 276.5 33)"><path d="M16.5 0 M16.5 0 C185.12 0, 353.74 0, 536.5 0 M16.5 0 C134.18 0, 251.87 0, 536.5 0 M536.5 0 C547.5 0, 553 5.5, 553 16.5 M536.5 0 C547.5 0, 553 5.5, 553 16.5 M553 16.5 C553 26.8, 553 37.1, 553 49.5 M553 16.5 C553 29.35, 553 42.2, 553 49.5 M553 49.5 C553 60.5, 547.5 66, 536.5 66 M553 49.5 C553 60.5, 547.5 66, 536.5 66 M536.5 66 C391.04 66, 245.59 66, 16.5 66 M536.5 66 C350.83 66, 165.15 66, 16.5 66 M16.5 66 C5.5 66, 0 60.5, 0 49.5 M16.5 66 C5.5 66, 0 60.5, 0 49.5 M0 49.5 C0 38.2, 0 26.9, 0 16.5 M0 49.5 C0 40.5, 0 31.51, 0 16.5 M0 16.5 C0 5.5, 5.5 0, 16.5 0 M0 16.5 C0 5.5, 5.5 0, 16.5 0" stroke="#000000" stroke-width="1" fill="none"></path></g><g transform="translate(246 221.5) rotate(0 41.5 12)"><text x="41.5" y="20" font-family="Cascadia, Segoe UI Emoji" font-size="20px" fill="#000000" text-anchor="middle" style="white-space: pre;" direction="ltr">Base OS</text></g><g stroke-linecap="round" transform="translate(11 123) rotate(0 113.5 36.5)"><path d="M18.25 0 M18.25 0 C72.19 0, 126.13 0, 208.75 0 M18.25 0 C74.85 0, 131.45 0, 208.75 0 M208.75 0 C220.92 0, 227 6.08, 227 18.25 M208.75 0 C220.92 0, 227 6.08, 227 18.25 M227 18.25 C227 27.17, 227 36.1, 227 54.75 M227 18.25 C227 27.07, 227 35.88, 227 54.75 M227 54.75 C227 66.92, 220.92 73, 208.75 73 M227 54.75 C227 66.92, 220.92 73, 208.75 73 M208.75 73 C147.89 73, 87.02 73, 18.25 73 M208.75 73 C167 73, 125.25 73, 18.25 73 M18.25 73 C6.08 73, 0 66.92, 0 54.75 M18.25 73 C6.08 73, 0 66.92, 0 54.75 M0 54.75 C0 45.64, 0 36.54, 0 18.25 M0 54.75 C0 44.47, 0 34.2, 0 18.25 M0 18.25 C0 6.08, 6.08 0, 18.25 0 M0 18.25 C0 6.08, 6.08 0, 18.25 0" stroke="#2b8a3e" stroke-width="1" fill="none"></path></g><g stroke-linecap="round" transform="translate(405 122) rotate(0 79.5 36.5)"><path d="M18.25 0 M18.25 0 C47.84 0, 77.43 0, 140.75 0 M18.25 0 C56.86 0, 95.48 0, 140.75 0 M140.75 0 C152.92 0, 159 6.08, 159 18.25 M140.75 0 C152.92 0, 159 6.08, 159 18.25 M159 18.25 C159 29.45, 159 40.65, 159 54.75 M159 18.25 C159 31.99, 159 45.72, 159 54.75 M159 54.75 C159 66.92, 152.92 73, 140.75 73 M159 54.75 C159 66.92, 152.92 73, 140.75 73 M140.75 73 C93.28 73, 45.8 73, 18.25 73 M140.75 73 C94.58 73, 48.42 73, 18.25 73 M18.25 73 C6.08 73, 0 66.92, 0 54.75 M18.25 73 C6.08 73, 0 66.92, 0 54.75 M0 54.75 C0 45.61, 0 36.48, 0 18.25 M0 54.75 C0 43.59, 0 32.43, 0 18.25 M0 18.25 C0 6.08, 6.08 0, 18.25 0 M0 18.25 C0 6.08, 6.08 0, 18.25 0" stroke="#e67700" stroke-width="1" fill="none"></path></g><g transform="translate(59.5 147) rotate(0 65 12)"><text x="65" y="20" font-family="Cascadia, Segoe UI Emoji" font-size="20px" fill="#2b8a3e" text-anchor="middle" style="white-space: pre;" direction="ltr">Python:3.10</text></g><g transform="translate(431.5 146) rotate(0 53 12)"><text x="53" y="20" font-family="Cascadia, Segoe UI Emoji" font-size="20px" fill="#e67700" text-anchor="middle" style="white-space: pre;" direction="ltr">Rust:1.66</text></g><g stroke-linecap="round" transform="translate(246 122) rotate(0 75.5 37)"><path d="M18.5 0 M18.5 0 C63.4 0, 108.29 0, 132.5 0 M18.5 0 C61.87 0, 105.24 0, 132.5 0 M132.5 0 C144.83 0, 151 6.17, 151 18.5 M132.5 0 C144.83 0, 151 6.17, 151 18.5 M151 18.5 C151 26.71, 151 34.93, 151 55.5 M151 18.5 C151 29.05, 151 39.6, 151 55.5 M151 55.5 C151 67.83, 144.83 74, 132.5 74 M151 55.5 C151 67.83, 144.83 74, 132.5 74 M132.5 74 C91.23 74, 49.96 74, 18.5 74 M132.5 74 C87.91 74, 43.33 74, 18.5 74 M18.5 74 C6.17 74, 0 67.83, 0 55.5 M18.5 74 C6.17 74, 0 67.83, 0 55.5 M0 55.5 C0 42.64, 0 29.78, 0 18.5 M0 55.5 C0 44.46, 0 33.42, 0 18.5 M0 18.5 C0 6.17, 6.17 0, 18.5 0 M0 18.5 C0 6.17, 6.17 0, 18.5 0" stroke="#364fc7" stroke-width="1" fill="none"></path></g><g transform="translate(274 147) rotate(0 47.5 12)"><text x="47.5" y="20" font-family="Cascadia, Segoe UI Emoji" font-size="20px" fill="#364fc7" text-anchor="middle" style="white-space: pre;" direction="ltr">Ruby:3.2</text></g><g stroke-linecap="round" transform="translate(10 10) rotate(0 143 52)"><path d="M26 0 M26 0 C115.34 0, 204.68 0, 260 0 M26 0 C105.75 0, 185.5 0, 260 0 M260 0 C277.33 0, 286 8.67, 286 26 M260 0 C277.33 0, 286 8.67, 286 26 M286 26 C286 43.66, 286 61.31, 286 78 M286 26 C286 38.45, 286 50.91, 286 78 M286 78 C286 95.33, 277.33 104, 260 104 M286 78 C286 95.33, 277.33 104, 260 104 M260 104 C204.66 104, 149.32 104, 26 104 M260 104 C187.18 104, 114.36 104, 26 104 M26 104 C8.67 104, 0 95.33, 0 78 M26 104 C8.67 104, 0 95.33, 0 78 M0 78 C0 66.86, 0 55.72, 0 26 M0 78 C0 66.39, 0 54.78, 0 26 M0 26 C0 8.67, 8.67 0, 26 0 M0 26 C0 8.67, 8.67 0, 26 0" stroke="#495057" stroke-width="1" fill="none"></path></g><g stroke-linecap="round" transform="translate(306 10) rotate(0 129 52)"><path d="M26 0 M26 0 C85.5 0, 144.99 0, 232 0 M26 0 C88.17 0, 150.33 0, 232 0 M232 0 C249.33 0, 258 8.67, 258 26 M232 0 C249.33 0, 258 8.67, 258 26 M258 26 C258 44.07, 258 62.13, 258 78 M258 26 C258 43.6, 258 61.2, 258 78 M258 78 C258 95.33, 249.33 104, 232 104 M258 78 C258 95.33, 249.33 104, 232 104 M232 104 C152.09 104, 72.19 104, 26 104 M232 104 C179.22 104, 126.44 104, 26 104 M26 104 C8.67 104, 0 95.33, 0 78 M26 104 C8.67 104, 0 95.33, 0 78 M0 78 C0 63.56, 0 49.13, 0 26 M0 78 C0 60.47, 0 42.94, 0 26 M0 26 C0 8.67, 8.67 0, 26 0 M0 26 C0 8.67, 8.67 0, 26 0" stroke="#862e9c" stroke-width="1" fill="none"></path></g><g transform="translate(94 50) rotate(0 59 12)"><text x="59" y="20" font-family="Cascadia, Segoe UI Emoji" font-size="20px" fill="#495057" text-anchor="middle" style="white-space: pre;" direction="ltr">Django:4.0</text></g><g transform="translate(358.5 50) rotate(0 76.5 12)"><text x="76.5" y="20" font-family="Cascadia, Segoe UI Emoji" font-size="20px" fill="#862e9c" text-anchor="middle" style="white-space: pre;" direction="ltr">PostgreSQL:14</text></g></svg>